<svg xmlns="http://www.w3.org/2000/svg" width="284" height="140" viewBox="0 0 284 140">
  <g id="Lapinas-graf-elements" transform="translate(-379 -1362)">
    <path id="Rectangle_14" data-name="Rectangle 14" d="M0,0H92a84,84,0,0,1,84,84v0a0,0,0,0,1,0,0H84A84,84,0,0,1,0,0V0A0,0,0,0,1,0,0Z" transform="translate(379 1418)" fill="#ffd241"/>
    <path id="Rectangle_15" data-name="Rectangle 15" d="M108,0h0a0,0,0,0,1,0,0V32A108,108,0,0,1,0,140H0a0,0,0,0,1,0,0V108A108,108,0,0,1,108,0Z" transform="translate(555 1362)" fill="#ffc508"/>
  </g>
</svg>
