<svg xmlns="http://www.w3.org/2000/svg" width="164.008" height="133.318" viewBox="0 0 164.008 133.318">
  <g id="icon-quote" transform="translate(0.008)">
    <g id="Layer_1" data-name="Layer 1">
      <g id="_" data-name=" ">
        <g id="Group_170" data-name="Group 170">
          <path id="Path_5189" data-name="Path 5189" d="M33.86,133.31a32.69,32.69,0,0,1-24.07-9.79A32.69,32.69,0,0,1,0,99.45q0-15.33,9.79-24.6T33.86,65.6a30.16,30.16,0,0,1,19.57,6.87A35.06,35.06,0,0,0,55,61.36Q55,46,43.11,31.21A71.48,71.48,0,0,0,14.81,9.52L19.57,0q27.51,12.69,41,33.86T74.06,81.47q0,20.63-9,34.91Q54.5,133.32,33.86,133.31Zm89.93,0A33.43,33.43,0,0,1,89.93,99.45q0-15.33,9.79-24.6t24.07-9.25a30.16,30.16,0,0,1,19.57,6.87A35.059,35.059,0,0,0,145,61.36Q145,46,133,31.21A71.48,71.48,0,0,0,104.7,9.52L109.5,0q27.51,12.69,41,33.86T164,81.47q0,20.63-9,34.91Q144.42,133.32,123.79,133.31Z" fill="#e6e5e5"/>
        </g>
      </g>
    </g>
  </g>
</svg>
